<mxfile host="Electron" modified="2024-05-26T07:47:29.685Z" agent="Mozilla/5.0 (Macintosh; Intel Mac OS X 10_15_7) AppleWebKit/537.36 (KHTML, like Gecko) draw.io/23.1.5 Chrome/120.0.6099.109 Electron/28.1.0 Safari/537.36" etag="kEq4m95fBbZpyjmlREqB" version="23.1.5" type="device">
  <diagram name="第 1 页" id="SB1rSfEFWaJBJCeyFCCS">
    <mxGraphModel dx="1464" dy="1220" grid="0" gridSize="10" guides="1" tooltips="1" connect="1" arrows="1" fold="1" page="1" pageScale="1" pageWidth="827" pageHeight="509" math="0" shadow="0">
      <root>
        <mxCell id="0" />
        <mxCell id="1" parent="0" />
        <mxCell id="7TOUCfeQZy22KQKupD87-38" value="" style="rounded=1;whiteSpace=wrap;html=1;fillColor=none;dashed=1;fontFamily=Times New Roman;" parent="1" vertex="1">
          <mxGeometry x="482" y="95" width="333" height="408" as="geometry" />
        </mxCell>
        <mxCell id="7TOUCfeQZy22KQKupD87-40" value="" style="group;fontFamily=Times New Roman;" parent="1" vertex="1" connectable="0">
          <mxGeometry x="16" y="95" width="453" height="322" as="geometry" />
        </mxCell>
        <mxCell id="7TOUCfeQZy22KQKupD87-19" value="" style="rounded=1;whiteSpace=wrap;html=1;fillColor=none;dashed=1;fontFamily=Times New Roman;" parent="7TOUCfeQZy22KQKupD87-40" vertex="1">
          <mxGeometry width="453" height="322" as="geometry" />
        </mxCell>
        <mxCell id="7TOUCfeQZy22KQKupD87-12" value="" style="rounded=0;whiteSpace=wrap;html=1;fillColor=none;dashed=1;fontFamily=Times New Roman;" parent="7TOUCfeQZy22KQKupD87-40" vertex="1">
          <mxGeometry x="21" y="185" width="235" height="121" as="geometry" />
        </mxCell>
        <mxCell id="7TOUCfeQZy22KQKupD87-3" value="" style="rounded=0;whiteSpace=wrap;html=1;fontFamily=Times New Roman;" parent="7TOUCfeQZy22KQKupD87-40" vertex="1">
          <mxGeometry x="29" y="65" width="411" height="60" as="geometry" />
        </mxCell>
        <mxCell id="7TOUCfeQZy22KQKupD87-13" style="edgeStyle=orthogonalEdgeStyle;rounded=0;orthogonalLoop=1;jettySize=auto;html=1;entryX=0.5;entryY=0;entryDx=0;entryDy=0;fontFamily=Times New Roman;" parent="7TOUCfeQZy22KQKupD87-40" source="7TOUCfeQZy22KQKupD87-4" target="7TOUCfeQZy22KQKupD87-12" edge="1">
          <mxGeometry relative="1" as="geometry" />
        </mxCell>
        <mxCell id="7TOUCfeQZy22KQKupD87-4" value="&lt;font style=&quot;font-size: 14px;&quot;&gt;单词 1&lt;/font&gt;" style="rounded=0;whiteSpace=wrap;html=1;fillColor=#000000;strokeColor=#000000;fontColor=#000000;fillStyle=hatch;fillOpacity=40;direction=north;fontFamily=Times New Roman;" parent="7TOUCfeQZy22KQKupD87-40" vertex="1">
          <mxGeometry x="100" y="65" width="79" height="60" as="geometry" />
        </mxCell>
        <mxCell id="7TOUCfeQZy22KQKupD87-6" value="&lt;font style=&quot;font-size: 14px;&quot;&gt;单词 2&lt;/font&gt;" style="rounded=0;whiteSpace=wrap;html=1;fillColor=#000000;strokeColor=#000000;fontColor=#000000;fillStyle=hatch;fillOpacity=40;direction=north;fontFamily=Times New Roman;" parent="7TOUCfeQZy22KQKupD87-40" vertex="1">
          <mxGeometry x="179" y="65" width="79" height="60" as="geometry" />
        </mxCell>
        <mxCell id="7TOUCfeQZy22KQKupD87-7" value="&lt;font style=&quot;font-size: 14px;&quot;&gt;单词 3&lt;/font&gt;" style="rounded=0;whiteSpace=wrap;html=1;fillColor=#000000;strokeColor=#000000;fontColor=#000000;fillStyle=hatch;fillOpacity=40;direction=north;fontFamily=Times New Roman;" parent="7TOUCfeQZy22KQKupD87-40" vertex="1">
          <mxGeometry x="258" y="65" width="79" height="60" as="geometry" />
        </mxCell>
        <mxCell id="7TOUCfeQZy22KQKupD87-8" value="&lt;font style=&quot;font-size: 15px;&quot;&gt;...&lt;/font&gt;" style="text;html=1;align=center;verticalAlign=middle;resizable=0;points=[];autosize=1;strokeColor=none;fillColor=none;fontFamily=Times New Roman;" parent="7TOUCfeQZy22KQKupD87-40" vertex="1">
          <mxGeometry x="371" y="80" width="29" height="30" as="geometry" />
        </mxCell>
        <mxCell id="7TOUCfeQZy22KQKupD87-9" value="字典的大小" style="rounded=0;whiteSpace=wrap;html=1;fillColor=#647687;fontColor=#000000;strokeColor=#000000;fillStyle=hatch;strokeOpacity=100;fillOpacity=40;fontFamily=Times New Roman;" parent="7TOUCfeQZy22KQKupD87-40" vertex="1">
          <mxGeometry x="29" y="65" width="71" height="60" as="geometry" />
        </mxCell>
        <mxCell id="7TOUCfeQZy22KQKupD87-10" value="&lt;font style=&quot;font-size: 14px;&quot;&gt;单词的大小&lt;/font&gt;" style="rounded=0;whiteSpace=wrap;html=1;fillColor=#000000;strokeColor=#000000;fontColor=#000000;fillStyle=dashed;direction=south;fillOpacity=30;fontFamily=Times New Roman;" parent="7TOUCfeQZy22KQKupD87-40" vertex="1">
          <mxGeometry x="35" y="237" width="87" height="60" as="geometry" />
        </mxCell>
        <mxCell id="7TOUCfeQZy22KQKupD87-11" value="&lt;font style=&quot;font-size: 14px;&quot;&gt;以字节形式表示的字符&lt;/font&gt;" style="rounded=0;whiteSpace=wrap;html=1;fillColor=#000000;strokeColor=#000000;fontColor=#000000;fillStyle=dashed;fillOpacity=30;fontFamily=Times New Roman;" parent="7TOUCfeQZy22KQKupD87-40" vertex="1">
          <mxGeometry x="122" y="237" width="120" height="60" as="geometry" />
        </mxCell>
        <mxCell id="7TOUCfeQZy22KQKupD87-14" value="单个单词项" style="text;html=1;align=center;verticalAlign=middle;resizable=0;points=[];autosize=1;strokeColor=none;fillColor=none;fontFamily=Times New Roman;" parent="7TOUCfeQZy22KQKupD87-40" vertex="1">
          <mxGeometry x="95" y="198" width="78" height="26" as="geometry" />
        </mxCell>
        <mxCell id="7TOUCfeQZy22KQKupD87-20" value="&lt;font style=&quot;font-size: 16px;&quot;&gt;字典区&lt;/font&gt;" style="text;html=1;align=center;verticalAlign=middle;resizable=0;points=[];autosize=1;strokeColor=none;fillColor=none;fontFamily=Times New Roman;" parent="7TOUCfeQZy22KQKupD87-40" vertex="1">
          <mxGeometry x="190" y="12" width="66" height="31" as="geometry" />
        </mxCell>
        <mxCell id="7TOUCfeQZy22KQKupD87-31" value="" style="rounded=0;whiteSpace=wrap;html=1;fillColor=none;dashed=1;fontFamily=Times New Roman;" parent="1" vertex="1">
          <mxGeometry x="499" y="270" width="188" height="107" as="geometry" />
        </mxCell>
        <mxCell id="7TOUCfeQZy22KQKupD87-21" style="edgeStyle=orthogonalEdgeStyle;rounded=0;orthogonalLoop=1;jettySize=auto;html=1;entryX=0.5;entryY=0;entryDx=0;entryDy=0;fontFamily=Times New Roman;" parent="1" source="7TOUCfeQZy22KQKupD87-15" target="7TOUCfeQZy22KQKupD87-19" edge="1">
          <mxGeometry relative="1" as="geometry">
            <Array as="points">
              <mxPoint x="293" y="81" />
              <mxPoint x="243" y="81" />
            </Array>
          </mxGeometry>
        </mxCell>
        <mxCell id="7TOUCfeQZy22KQKupD87-15" value="&lt;font style=&quot;font-size: 16px;&quot;&gt;字典区&lt;/font&gt;" style="rounded=0;whiteSpace=wrap;html=1;fillColor=#000000;strokeColor=default;fillStyle=solid;direction=south;shadow=0;fillOpacity=45;glass=0;fontFamily=Times New Roman;" parent="1" vertex="1">
          <mxGeometry x="139" y="8" width="307" height="60" as="geometry" />
        </mxCell>
        <mxCell id="7TOUCfeQZy22KQKupD87-39" style="edgeStyle=orthogonalEdgeStyle;rounded=0;orthogonalLoop=1;jettySize=auto;html=1;entryX=0.5;entryY=0;entryDx=0;entryDy=0;fontFamily=Times New Roman;" parent="1" source="7TOUCfeQZy22KQKupD87-18" target="7TOUCfeQZy22KQKupD87-38" edge="1">
          <mxGeometry relative="1" as="geometry">
            <Array as="points">
              <mxPoint x="609" y="82" />
              <mxPoint x="649" y="82" />
            </Array>
          </mxGeometry>
        </mxCell>
        <mxCell id="7TOUCfeQZy22KQKupD87-18" value="&lt;font style=&quot;font-size: 16px;&quot;&gt;编码区&lt;/font&gt;" style="rounded=0;whiteSpace=wrap;html=1;fillColor=#000000;strokeColor=default;fillOpacity=5;glass=0;fontFamily=Times New Roman;" parent="1" vertex="1">
          <mxGeometry x="446" y="8" width="326" height="60" as="geometry" />
        </mxCell>
        <mxCell id="7TOUCfeQZy22KQKupD87-22" value="&lt;font style=&quot;font-size: 14px;&quot;&gt;设备的个数&lt;/font&gt;" style="rounded=0;whiteSpace=wrap;html=1;fillColor=#000000;strokeColor=#56517e;fillOpacity=20;fontFamily=Times New Roman;" parent="1" vertex="1">
          <mxGeometry x="492" y="160" width="76" height="60" as="geometry" />
        </mxCell>
        <mxCell id="7TOUCfeQZy22KQKupD87-33" style="edgeStyle=orthogonalEdgeStyle;rounded=0;orthogonalLoop=1;jettySize=auto;html=1;entryX=0.5;entryY=0;entryDx=0;entryDy=0;fontFamily=Times New Roman;" parent="1" source="7TOUCfeQZy22KQKupD87-23" target="7TOUCfeQZy22KQKupD87-31" edge="1">
          <mxGeometry relative="1" as="geometry" />
        </mxCell>
        <mxCell id="7TOUCfeQZy22KQKupD87-23" value="&lt;font style=&quot;font-size: 14px;&quot;&gt;设备 1&lt;/font&gt;" style="rounded=0;whiteSpace=wrap;html=1;fillColor=#000000;strokeColor=#000000;fillStyle=cross-hatch;fillOpacity=40;fontFamily=Times New Roman;" parent="1" vertex="1">
          <mxGeometry x="568" y="160" width="76" height="60" as="geometry" />
        </mxCell>
        <mxCell id="7TOUCfeQZy22KQKupD87-24" value="&lt;font style=&quot;font-size: 14px;&quot;&gt;设备 2&lt;/font&gt;" style="rounded=0;whiteSpace=wrap;html=1;fillColor=#000000;strokeColor=#000000;fillStyle=cross-hatch;fillOpacity=40;fontFamily=Times New Roman;" parent="1" vertex="1">
          <mxGeometry x="644" y="160" width="76" height="60" as="geometry" />
        </mxCell>
        <mxCell id="7TOUCfeQZy22KQKupD87-25" value="..." style="rounded=0;whiteSpace=wrap;html=1;fontFamily=Times New Roman;" parent="1" vertex="1">
          <mxGeometry x="720" y="160" width="76" height="60" as="geometry" />
        </mxCell>
        <mxCell id="7TOUCfeQZy22KQKupD87-27" value="&lt;font style=&quot;font-size: 16px;&quot;&gt;编码区&lt;/font&gt;" style="text;html=1;align=center;verticalAlign=middle;resizable=0;points=[];autosize=1;strokeColor=none;fillColor=none;fontFamily=Times New Roman;" parent="1" vertex="1">
          <mxGeometry x="615.5" y="101" width="66" height="31" as="geometry" />
        </mxCell>
        <mxCell id="7TOUCfeQZy22KQKupD87-29" value="&lt;font style=&quot;font-size: 14px;&quot;&gt;设备的层级数&lt;/font&gt;" style="rounded=0;whiteSpace=wrap;html=1;fillColor=#000000;strokeColor=#000000;fillOpacity=10;fontFamily=Times New Roman;" parent="1" vertex="1">
          <mxGeometry x="515" y="304" width="77" height="60" as="geometry" />
        </mxCell>
        <mxCell id="7TOUCfeQZy22KQKupD87-30" value="&lt;font style=&quot;font-size: 14px;&quot;&gt;字典编码&lt;/font&gt;" style="rounded=0;whiteSpace=wrap;html=1;fillColor=#000000;strokeColor=#000000;fillOpacity=30;fontFamily=Times New Roman;" parent="1" vertex="1">
          <mxGeometry x="592" y="304" width="77" height="60" as="geometry" />
        </mxCell>
        <mxCell id="7TOUCfeQZy22KQKupD87-32" value="单个设备编码" style="text;html=1;align=center;verticalAlign=middle;resizable=0;points=[];autosize=1;strokeColor=none;fillColor=none;fontFamily=Times New Roman;" parent="1" vertex="1">
          <mxGeometry x="548" y="276" width="90" height="26" as="geometry" />
        </mxCell>
        <mxCell id="7TOUCfeQZy22KQKupD87-34" value="&lt;span style=&quot;font-size: 14px;&quot;&gt;时间序列的个数&lt;/span&gt;" style="rounded=0;whiteSpace=wrap;html=1;fillColor=#000000;strokeColor=#000000;fillStyle=zigzag-line;fillOpacity=20;fontFamily=Times New Roman;" parent="1" vertex="1">
          <mxGeometry x="496.5" y="404" width="76" height="60" as="geometry" />
        </mxCell>
        <mxCell id="7TOUCfeQZy22KQKupD87-35" value="&lt;font style=&quot;font-size: 14px;&quot;&gt;时间序列1编码&lt;/font&gt;" style="rounded=0;whiteSpace=wrap;html=1;fillColor=#bac8d3;strokeColor=#000000;fontFamily=Times New Roman;" parent="1" vertex="1">
          <mxGeometry x="572.5" y="404" width="76" height="60" as="geometry" />
        </mxCell>
        <mxCell id="7TOUCfeQZy22KQKupD87-36" value="&lt;font style=&quot;font-size: 14px;&quot;&gt;时间序列 2 编码&lt;/font&gt;" style="rounded=0;whiteSpace=wrap;html=1;fillColor=#bac8d3;strokeColor=#000000;fontFamily=Times New Roman;" parent="1" vertex="1">
          <mxGeometry x="648.5" y="404" width="76" height="60" as="geometry" />
        </mxCell>
        <mxCell id="7TOUCfeQZy22KQKupD87-37" value="..." style="rounded=0;whiteSpace=wrap;html=1;fontFamily=Times New Roman;" parent="1" vertex="1">
          <mxGeometry x="724.5" y="404" width="76" height="60" as="geometry" />
        </mxCell>
      </root>
    </mxGraphModel>
  </diagram>
</mxfile>
